<mxfile host="app.diagrams.net" modified="2024-06-02T17:28:30.805Z" agent="Mozilla/5.0 (Windows NT 10.0; Win64; x64) AppleWebKit/537.36 (KHTML, like Gecko) Chrome/125.0.0.0 Safari/537.36" version="24.4.13" etag="OPwv6mjeANPjrXFtoT2J" type="github">
  <diagram name="Page-1" id="7wkloVr6w1kQ9ZU1RgK9">
    <mxGraphModel>
      <root>
        <mxCell id="0" />
        <mxCell id="1" parent="0" />
      </root>
    </mxGraphModel>
  </diagram>
</mxfile>
